<svg width="60" height="60" viewBox="0 0 60 60" fill="none" xmlns="http://www.w3.org/2000/svg">
<path d="M30 0C13.4476 0 0 13.4477 0 30C0 46.5524 13.4476 60 30 60C46.5524 60 60 46.5524 60 30C60 25.6598 59.0653 21.5382 57.4006 17.8125L59.2543 16.8963C59.6977 16.6744 60 16.1704 60 15.6818C60 14.8794 59.3132 14.4065 58.7642 14.3182L55.3551 13.9773C52.9383 10.1611 49.6843 6.93196 45.8523 4.53835L45.6818 1.27841C45.644 0.55604 44.9502 0 44.3182 0C43.8431 0 43.3098 0.328679 43.1037 0.745739L42.1875 2.59943C38.4607 0.937599 34.3399 0 30 0ZM30 2.72727C33.9027 2.72727 37.6002 3.55597 40.9517 5.02841L37.5852 11.7614C35.2479 10.7854 32.6875 10.2273 30 10.2273C19.096 10.2273 10.2273 19.096 10.2273 30C10.2273 40.904 19.096 49.7727 30 49.7727C40.904 49.7727 49.7727 40.904 49.7727 30C49.7727 27.3029 49.2216 24.7374 48.2386 22.3935L54.9716 19.027C56.4532 22.3867 57.2727 26.0861 57.2727 30C57.2727 45.0785 45.0784 57.2727 30 57.2727C14.9215 57.2727 2.72727 45.0785 2.72727 30C2.72727 14.9216 14.9215 2.72727 30 2.72727ZM43.2315 6.58381L43.6364 14.3821C43.674 15.0266 44.2293 15.601 44.8722 15.6605L53.7997 16.5554L33.0469 26.9318L43.2315 6.58381ZM46.0227 7.92614C48.2277 9.53107 50.1823 11.4556 51.8182 13.6364L46.2997 13.0824L46.0227 7.92614ZM30 12.9545C32.2553 12.9545 34.403 13.3969 36.3707 14.1903L33.0043 20.9446C32.0574 20.6265 31.0529 20.4545 30 20.4545C24.7443 20.4545 20.4545 24.7444 20.4545 30C20.4545 35.2557 24.7443 39.5455 30 39.5455C35.2556 39.5455 39.5455 35.2557 39.5455 30C39.5455 28.9522 39.3906 27.9391 39.0767 26.9957L45.8097 23.608C46.6045 25.5814 47.0455 27.7387 47.0455 30C47.0455 39.4301 39.4301 47.0455 30 47.0455C20.5699 47.0455 12.9545 39.4301 12.9545 30C12.9545 20.5699 20.5699 12.9545 30 12.9545ZM30 23.1818C30.6141 23.1818 31.2037 23.265 31.7685 23.4162L28.7855 29.3821C28.5284 29.8906 28.6353 30.5588 29.0383 30.9617C29.4412 31.3647 30.1094 31.4716 30.6179 31.2145L36.5838 28.2315C36.7318 28.7958 36.8182 29.3863 36.8182 30C36.8182 33.7817 33.7817 36.8182 30 36.8182C26.2183 36.8182 23.1818 33.7817 23.1818 30C23.1818 26.2183 26.2183 23.1818 30 23.1818Z" fill="#008080"/>
</svg>
