<svg width="55" height="60" viewBox="0 0 55 60" fill="none" xmlns="http://www.w3.org/2000/svg">
<g clip-path="url(#clip0_178_808)">
<path d="M39.638 40.0885C39.6155 40.0975 39.5935 40.1085 39.5735 40.1195L27.5536 46.442C27.0837 46.5318 26.5973 46.4395 26.193 46.1839L26.1123 46.1452L29.742 44.9614C30.4497 44.7601 31.0615 44.3112 31.4658 43.6966C31.8702 43.0819 32.0401 42.3423 31.9447 41.6128C31.8493 40.8832 31.4949 40.2123 30.946 39.7223C30.3972 39.2323 29.6905 38.9558 28.9549 38.9433C27.5793 38.9566 26.2099 39.1299 24.8743 39.4595C23.5349 39.7491 22.4768 39.9756 21.4181 39.6775C20.9846 39.555 20.5278 39.3924 20.0446 39.2201C17.4401 38.2911 13.8724 37.0188 10.1582 41.3608C9.80499 41.7778 9.52904 42.2545 9.34337 42.7685C9.23145 43.1072 9.04694 43.4174 8.80273 43.6775C8.53375 43.5179 8.22451 43.4392 7.91196 43.4506C7.59941 43.462 7.29676 43.5632 7.04016 43.742L6.24081 44.3014C6.06214 44.0856 5.81758 43.9344 5.54469 43.8711C5.35576 43.8267 5.15961 43.8228 4.96906 43.8595C4.7785 43.8962 4.59784 43.9727 4.43889 44.084L0.715682 46.6936C0.423083 46.9003 0.224265 47.2145 0.162723 47.5674C0.101182 47.9204 0.181928 48.2833 0.387296 48.5768L7.97887 59.4239C8.18498 59.7171 8.49889 59.9167 8.85185 59.979C9.20481 60.0412 9.56807 59.9611 9.86208 59.7561L12.3588 58.0078C12.629 57.814 12.8191 57.5281 12.8932 57.204C12.9674 56.8798 12.9205 56.5397 12.7614 56.2478L14.7962 54.8233C15.0627 54.6353 15.2667 54.3717 15.3817 54.0666C15.4968 53.7614 15.5175 53.4287 15.4414 53.1116C15.6255 53.0383 15.8224 53.0023 16.0205 53.0057C16.2187 53.0092 16.4141 53.052 16.5956 53.1316C18.7967 54.2393 21.1784 54.944 23.6278 55.2123C24.1164 55.2596 24.5917 55.2833 25.0536 55.2833C27.0102 55.356 28.9394 54.8064 30.5639 53.7136L42.2845 45.2085C42.874 44.8194 43.3051 44.2325 43.5 43.5536C43.695 42.8747 43.6409 42.1485 43.3477 41.5059C43.0263 40.8415 42.4634 40.3249 41.774 40.0615C41.0846 39.7981 40.3206 39.8077 39.638 40.0885ZM9.15563 58.2581L1.88406 47.871L5.11501 45.6085L11.2124 56.8161L9.15563 58.2581ZM41.3245 43.8859L29.6045 52.391C26.5517 54.6071 21.2388 53.6252 17.3285 51.6697C16.8984 51.4704 16.4295 51.3686 15.9555 51.3718C15.4815 51.3749 15.014 51.4828 14.5866 51.6878L9.85692 44.933C10.3101 44.5026 10.6537 43.9699 10.8588 43.3794C10.9787 43.0309 11.1617 42.7074 11.3988 42.4253C14.3821 38.9382 16.8653 39.8233 19.4943 40.7614C20.0046 40.9433 20.4859 41.115 20.9723 41.2524C22.4227 41.6627 23.7807 41.3691 25.2181 41.0588C26.4334 40.7506 27.6812 40.589 28.9349 40.5775C29.2706 40.5804 29.5942 40.703 29.8475 40.9234C30.1007 41.1438 30.267 41.4474 30.3162 41.7795C30.382 42.1249 30.3148 42.4825 30.1278 42.7804C29.9409 43.0783 29.6481 43.2944 29.3084 43.3853L29.2568 43.4001L22.6001 45.5743C22.3092 45.675 22.0383 45.8264 21.8001 46.0214L21.2691 46.3439C21.1114 46.4402 20.9909 46.587 20.9274 46.7605C20.8638 46.934 20.8609 47.1239 20.9192 47.2993C20.9774 47.4746 21.0933 47.6251 21.248 47.7261C21.4027 47.8271 21.5871 47.8728 21.771 47.8556C22.1117 47.7819 22.428 47.6225 22.6897 47.3923L23.0497 47.1736C23.8917 47.1001 24.7371 47.2687 25.4865 47.6594C26.2425 48.0855 27.1298 48.2154 27.9762 48.0239C28.0545 48.0087 28.1302 47.982 28.2007 47.9446L40.2961 41.5846C40.5915 41.4734 40.9178 41.477 41.2107 41.5946C41.5036 41.7123 41.7417 41.9355 41.878 42.2201C41.9985 42.5183 42.0089 42.8496 41.9075 43.1548C41.8061 43.46 41.5994 43.7191 41.3245 43.8859ZM5.27114 48.1697L6.33565 49.6904C6.40054 49.7781 6.44721 49.878 6.4729 49.984C6.49859 50.0901 6.50279 50.2002 6.48524 50.3079C6.46768 50.4156 6.42874 50.5187 6.37071 50.6112C6.31267 50.7036 6.23672 50.7834 6.14733 50.846C6.05793 50.9086 5.95691 50.9527 5.85022 50.9756C5.74353 50.9986 5.63332 50.9999 5.52611 50.9796C5.41889 50.9592 5.31683 50.9176 5.22595 50.8572C5.13507 50.7968 5.0572 50.7188 4.99695 50.6278L3.93566 49.1072C3.81799 48.9295 3.77436 48.7129 3.81409 48.5035C3.85381 48.2941 3.97374 48.1085 4.14831 47.9862C4.32289 47.864 4.5383 47.8148 4.74865 47.8491C4.95899 47.8833 5.14763 47.9984 5.27436 48.1697H5.27114ZM27.082 38.5001C28.6571 38.5 30.1967 38.0328 31.5063 37.1577C32.8158 36.2825 33.8365 35.0387 34.4391 33.5835C35.0418 32.1283 35.1994 30.527 34.8921 28.9822C34.5847 27.4375 33.8262 26.0185 32.7124 24.9048C31.5986 23.7911 30.1796 23.0327 28.6348 22.7255C27.09 22.4182 25.4887 22.576 24.0336 23.1787C22.5784 23.7815 21.3347 24.8023 20.4596 26.1119C19.5846 27.4215 19.1175 28.9612 19.1175 30.5363C19.1199 32.6478 19.9598 34.6722 21.4529 36.1652C22.9461 37.6582 24.9705 38.4979 27.082 38.5001ZM24.9439 32.015C24.9499 31.8023 25.0386 31.6003 25.1912 31.4519C25.3438 31.3035 25.5482 31.2205 25.761 31.2205C25.9738 31.2205 26.1783 31.3035 26.3308 31.4519C26.4834 31.6003 26.5721 31.8023 26.5781 32.015V33.0473C26.7214 33.1609 26.8988 33.2227 27.0817 33.2227C27.2645 33.2227 27.442 33.1609 27.5852 33.0473V31.5253C27.5174 31.4637 27.438 31.4164 27.3515 31.3863C27.265 31.3561 27.1734 31.3437 27.082 31.3498C26.8243 31.3738 26.5644 31.3465 26.3173 31.2697C26.0701 31.1929 25.8406 31.0679 25.6419 30.9021C25.4433 30.7363 25.2793 30.5328 25.1595 30.3034C25.0397 30.074 24.9665 29.8232 24.9439 29.5653V28.0312C24.9603 27.6511 25.097 27.2861 25.3344 26.9889C25.5718 26.6916 25.8975 26.4776 26.2646 26.3776V25.9712C26.2705 25.7584 26.3593 25.5564 26.5118 25.4081C26.6644 25.2597 26.8688 25.1767 27.0817 25.1767C27.2945 25.1767 27.4989 25.2597 27.6515 25.4081C27.8041 25.5564 27.8928 25.7584 27.8988 25.9712V26.3776C28.2658 26.4776 28.5915 26.6916 28.8289 26.9889C29.0663 27.2861 29.2031 27.6511 29.2194 28.0312V29.0505C29.2225 29.1597 29.2036 29.2685 29.1639 29.3703C29.1242 29.4721 29.0645 29.5649 28.9884 29.6433C28.9122 29.7216 28.8211 29.7839 28.7204 29.8264C28.6197 29.869 28.5116 29.8909 28.4023 29.8909C28.293 29.8909 28.1849 29.869 28.0842 29.8264C27.9835 29.7839 27.8924 29.7216 27.8162 29.6433C27.7401 29.5649 27.6804 29.4721 27.6407 29.3703C27.601 29.2685 27.5821 29.1597 27.5852 29.0505V28.0557C27.4418 27.9424 27.2644 27.8808 27.0817 27.8808C26.8989 27.8808 26.7215 27.9424 26.5781 28.0557V29.5395C26.6461 29.6009 26.7257 29.6481 26.8123 29.6781C26.8989 29.7081 26.9906 29.7205 27.082 29.7144C27.3397 29.6904 27.5996 29.7177 27.8467 29.7946C28.0939 29.8715 28.3233 29.9965 28.522 30.1624C28.7206 30.3283 28.8845 30.5318 29.0042 30.7613C29.1239 30.9908 29.197 31.2417 29.2194 31.4995V33.0679C29.2032 33.448 29.0665 33.813 28.829 34.1103C28.5916 34.4075 28.2658 34.6216 27.8988 34.7214V35.1279C27.8928 35.3406 27.8041 35.5426 27.6515 35.691C27.4989 35.8393 27.2945 35.9223 27.0817 35.9223C26.8688 35.9223 26.6644 35.8393 26.5118 35.691C26.3593 35.5426 26.2705 35.3406 26.2646 35.1279V34.7214C25.8975 34.6216 25.5717 34.4075 25.3343 34.1103C25.0969 33.813 24.9602 33.448 24.9439 33.0679V32.015ZM54.4109 10.9345L46.2367 0.516473C46.0149 0.23489 45.6905 0.0526826 45.3347 0.00975535C44.9788 -0.0331719 44.6204 0.0666795 44.338 0.287442L41.9406 2.17001C41.6812 2.3781 41.5068 2.67389 41.4504 3.00164C41.3939 3.32939 41.4593 3.66647 41.6342 3.94936L39.6806 5.48419C39.4244 5.68563 39.2346 5.95938 39.1358 6.26997C39.037 6.58055 39.0337 6.91365 39.1264 7.22611C38.9467 7.30926 38.7522 7.3559 38.5543 7.36332C38.3564 7.37074 38.159 7.3388 37.9735 7.26934C35.7156 6.2828 33.2991 5.70899 30.8387 5.57515C28.0168 5.45386 25.6504 6.10354 23.9949 7.44611L12.7556 16.5809C12.1882 17.0015 11.7898 17.611 11.6322 18.2995C11.4746 18.988 11.5683 19.7102 11.8963 20.3357C12.2532 20.9817 12.8434 21.4671 13.5462 21.6925C14.249 21.9179 15.0114 21.8665 15.6775 21.5486C15.6997 21.5383 15.7212 21.5266 15.742 21.5138L27.4 14.5461C27.8637 14.4292 28.3545 14.4936 28.7723 14.7261L28.8549 14.7603L25.2943 16.1422C24.6098 16.3783 24.0308 16.8488 23.6598 17.4705C23.2888 18.0923 23.1495 18.8252 23.2668 19.5397C23.384 20.2542 23.7501 20.9042 24.3004 21.3748C24.8506 21.8454 25.5496 22.1062 26.2736 22.1112C26.3181 22.1112 26.3633 22.1112 26.4078 22.1112C27.7802 22.0241 29.1376 21.7753 30.4516 21.3699C31.7736 21.008 32.8174 20.7247 33.891 20.9641C34.3303 21.0628 34.7942 21.2002 35.2871 21.346C37.9387 22.1318 41.5703 23.208 45.0425 18.6699C45.3728 18.2347 45.6224 17.7436 45.7793 17.2202C45.8728 16.876 46.0404 16.5563 46.2703 16.2835C46.4442 16.3741 46.633 16.4327 46.8277 16.4564C46.8936 16.4646 46.96 16.4687 47.0264 16.4686C47.3892 16.4689 47.7415 16.3469 48.0264 16.1222L48.7941 15.5196C48.9838 15.7255 49.2358 15.8633 49.5115 15.9119C49.7025 15.9458 49.8986 15.9391 50.0868 15.892C50.275 15.845 50.4512 15.7588 50.6038 15.639L54.1792 12.8332C54.4608 12.6114 54.643 12.287 54.686 11.9311C54.7289 11.5753 54.629 11.2169 54.4083 10.9345H54.4109ZM44.2348 16.6944C44.134 17.0491 43.9689 17.3821 43.7477 17.677C40.9587 21.3215 38.4309 20.5725 35.7542 19.7789C35.2381 19.6254 34.7452 19.4802 34.2523 19.3693C32.7813 19.0383 31.4413 19.4054 30.0233 19.7938C28.8259 20.1659 27.5887 20.3953 26.3375 20.477C26.0028 20.4915 25.6739 20.3866 25.4093 20.1812C25.1447 19.9757 24.9618 19.6829 24.893 19.3551C24.8083 19.0137 24.856 18.6529 25.0266 18.3453C25.1972 18.0377 25.4779 17.806 25.8123 17.697L25.8626 17.679L32.3916 15.1454C32.6767 15.0294 32.9388 14.8636 33.1658 14.6557L33.6819 14.3041C33.836 14.2002 33.9499 14.0468 34.0051 13.8694C34.0602 13.6919 34.0531 13.501 33.9851 13.328C33.9171 13.1551 33.7921 13.0106 33.6308 12.9183C33.4696 12.826 33.2816 12.7914 33.0981 12.8203C32.762 12.9122 32.4551 13.0885 32.2065 13.3325L31.8587 13.5706C31.0221 13.6902 30.1688 13.568 29.3994 13.2183C28.6215 12.8337 27.7282 12.7523 26.8936 12.99C26.8162 13.0094 26.7421 13.0401 26.6736 13.0809L14.9388 20.0893C14.6501 20.2159 14.3244 20.2298 14.0259 20.1283C13.7274 20.0268 13.4777 19.8173 13.3259 19.5409C13.1896 19.2498 13.1612 18.9197 13.2458 18.6095C13.3304 18.2994 13.5225 18.0295 13.7879 17.848L25.0259 8.71707C27.9536 6.33837 33.3116 7.02934 37.3232 8.76868C37.7634 8.94454 38.2371 9.02076 38.7103 8.99187C39.1835 8.96298 39.6444 8.8297 40.06 8.60159L45.1509 15.0893C44.7216 15.5434 44.4075 16.0939 44.2348 16.6944ZM49.8477 14.1564L43.1503 3.29775L45.1251 1.74937L52.9515 11.7235L49.8477 14.1564ZM48.4064 10.1467C48.2781 9.97579 48.2219 9.76139 48.2498 9.54949C48.2777 9.33759 48.3874 9.14505 48.5556 9.0131C48.7237 8.88116 48.9368 8.82031 49.1493 8.84361C49.3617 8.8669 49.5566 8.97247 49.6922 9.13771L50.8386 10.5984C50.9669 10.7693 51.0231 10.9837 50.9952 11.1956C50.9673 11.4075 50.8576 11.6 50.6894 11.732C50.5213 11.8639 50.3082 11.9248 50.0957 11.9015C49.8833 11.8782 49.6884 11.7726 49.5528 11.6074L48.4064 10.1467Z" fill="#008080"/>
</g>
<defs>
<clipPath id="clip0_178_808">
<rect width="54.8384" height="60" fill="white"/>
</clipPath>
</defs>
</svg>
