<svg width="59" height="60" viewBox="0 0 59 60" fill="none" xmlns="http://www.w3.org/2000/svg">
<g clip-path="url(#clip0_178_770)">
<path d="M34.2205 49.5609H39.1255C39.9018 49.5609 40.5318 48.931 40.5318 48.1547C40.5318 43.3397 37.5468 39.2166 33.3336 37.5178C34.169 36.5372 34.6771 35.2697 34.6771 33.8822V28.8197C34.6771 25.7241 32.158 23.2059 29.0633 23.2059C25.9677 23.2059 23.4486 25.725 23.4486 28.8197V33.8822C23.4486 35.2688 23.9568 36.5372 24.793 37.5178C20.579 39.2166 17.593 43.3406 17.593 48.1547C17.593 48.931 18.2221 49.5609 18.9993 49.5609H23.9052V51.9366C23.9052 52.7128 24.5343 53.3428 25.3115 53.3428H32.8143C33.5905 53.3428 34.2205 52.7128 34.2205 51.9366V51.9347V49.5609ZM26.2611 28.8197C26.2611 27.2747 27.5183 26.0184 29.0633 26.0184C30.6074 26.0184 31.8646 27.2747 31.8646 28.8197V33.8822C31.8646 35.4272 30.6074 36.6844 29.0633 36.6844C27.5183 36.6844 26.2611 35.4272 26.2611 33.8822V28.8197ZM20.5293 46.7484C21.2052 42.6431 24.7686 39.4978 29.0643 39.4978C33.3571 39.4978 36.9205 42.6431 37.5955 46.7484H34.2205V45.6384C34.2205 44.8622 33.5905 44.2322 32.8143 44.2322C32.038 44.2322 31.408 44.8622 31.408 45.6384V50.5303H26.7177V45.6384C26.7177 44.8622 26.0886 44.2322 25.3115 44.2322C24.5343 44.2322 23.9052 44.8622 23.9052 45.6384V46.7484H20.5293Z" fill="#008080"/>
<path d="M43.1532 51.0891C39.4614 55.021 34.457 57.1875 29.0626 57.1875C23.6682 57.1875 18.6639 55.021 14.971 51.0891C14.4404 50.5228 13.5498 50.4947 12.9826 51.0263C12.4164 51.5578 12.3882 52.4485 12.9198 53.0138C17.1498 57.5194 22.8826 60 29.0626 60C35.2426 60 40.9754 57.5194 45.2045 53.0138C45.7351 52.4475 45.7079 51.5578 45.1417 51.0263C44.5764 50.4956 43.6867 50.5228 43.1532 51.0891Z" fill="#008080"/>
<path d="M23.7638 11.0934L22.995 15.5784C22.905 16.1062 23.1216 16.6387 23.5547 16.9537C23.7994 17.1309 24.0891 17.2219 24.3806 17.2219C24.6047 17.2219 24.8297 17.1684 25.035 17.0606L29.0625 14.9428L33.09 17.0606C33.5634 17.31 34.1372 17.2687 34.5713 16.9537C35.0044 16.6397 35.2209 16.1062 35.1309 15.5784L34.3613 11.0934L37.62 7.91812C38.0034 7.545 38.1413 6.98531 37.9763 6.47625C37.8103 5.96719 37.3706 5.59594 36.8409 5.51906L32.3381 4.86469L30.3244 0.78375C30.0872 0.30375 29.5978 0 29.0625 0C28.5272 0 28.0388 0.30375 27.8016 0.78375L25.7878 4.86469L21.285 5.51906C20.7553 5.59594 20.3156 5.96719 20.1497 6.47625C19.9847 6.98531 20.1225 7.54406 20.5059 7.91812L23.7638 11.0934ZM26.9241 7.54125C27.3816 7.47469 27.7781 7.18687 27.9825 6.7725L29.0625 4.58344L30.1425 6.77156C30.3469 7.18594 30.7434 7.47469 31.2009 7.54031L33.615 7.89187L31.8684 9.59437C31.5366 9.91781 31.3856 10.3828 31.4634 10.8394L31.8759 13.245L29.7159 12.1097C29.5106 12.0019 29.2866 11.9484 29.0616 11.9484C28.8366 11.9484 28.6125 12.0028 28.4072 12.1097L26.2481 13.245L26.6606 10.8394C26.7384 10.3828 26.5875 9.91781 26.2556 9.59437L24.5091 7.89187L26.9241 7.54125Z" fill="#008080"/>
<path d="M14.9935 32.9541C15.4266 32.6391 15.6432 32.1056 15.5532 31.5778L14.7835 27.0947L18.0422 23.9175C18.4257 23.5444 18.5635 22.9847 18.3975 22.4756C18.2316 21.9666 17.7919 21.5963 17.2622 21.5184L12.7603 20.865L10.7466 16.7841C10.5094 16.3041 10.021 16.0003 9.48565 16.0003C8.95034 16.0003 8.4619 16.3041 8.22472 16.7841L6.21097 20.865L1.70909 21.5184C1.17941 21.5953 0.738781 21.9666 0.573781 22.4756C0.408781 22.9847 0.546594 23.5434 0.929094 23.9175L4.18784 27.0947L3.41909 31.5778C3.32909 32.1056 3.54566 32.6391 3.97878 32.9541C4.22347 33.1313 4.51316 33.2222 4.80472 33.2222C5.02878 33.2222 5.25378 33.1688 5.45909 33.06L9.48565 30.9422L13.5132 33.0609C13.9866 33.3103 14.5613 33.2672 14.9935 32.9541ZM10.1391 28.11C9.93378 28.0022 9.70972 27.9488 9.48472 27.9488C9.25972 27.9488 9.03565 28.0031 8.83034 28.11L6.67128 29.2453L7.08284 26.8425C7.16066 26.3869 7.00972 25.9209 6.67878 25.5984L4.93128 23.8931L7.34534 23.5425C7.80378 23.4759 8.1994 23.1881 8.40472 22.7728L9.48472 20.5847L10.5647 22.7728C10.77 23.1881 11.1657 23.4759 11.6241 23.5425L14.0382 23.8931L12.2907 25.5975C11.9588 25.92 11.8078 26.3859 11.8866 26.8425L12.2991 29.2453L10.1391 28.11Z" fill="#008080"/>
<path d="M57.5531 22.4766C57.3872 21.9675 56.9475 21.5972 56.4178 21.5194L51.9141 20.8659L49.9022 16.785C49.665 16.305 49.1766 16.0013 48.6403 16.0013C48.1041 16.0013 47.6156 16.305 47.3794 16.785L45.3647 20.8669L40.8628 21.5203C40.3341 21.5972 39.8934 21.9684 39.7275 22.4775C39.5616 22.9866 39.7003 23.5453 40.0837 23.9194L43.3425 27.0966L42.5728 31.5797C42.4819 32.1075 42.6994 32.6409 43.1325 32.9559C43.5666 33.27 44.1394 33.3112 44.6137 33.0628L48.6412 30.9441L52.6687 33.0628C52.875 33.1706 53.099 33.2241 53.3231 33.2241C53.6147 33.2241 53.9044 33.1331 54.15 32.9559C54.5831 32.6409 54.7997 32.1075 54.7097 31.5797L53.94 27.0966L57.1987 23.9194C57.5803 23.5444 57.7181 22.9856 57.5531 22.4766ZM51.4462 25.5975C51.1144 25.92 50.9634 26.3859 51.0412 26.8425L51.4537 29.2453L49.2937 28.11C49.0884 28.0022 48.8644 27.9487 48.6394 27.9487C48.4144 27.9487 48.1903 28.0031 47.985 28.11L45.825 29.2453L46.2375 26.8425C46.3153 26.3859 46.1644 25.9209 45.8325 25.5975L44.085 23.8931L46.4991 23.5425C46.9566 23.4759 47.3531 23.1881 47.5575 22.7737L48.6375 20.5847L49.7165 22.7728C49.9219 23.1881 50.3184 23.4759 50.7759 23.5425L53.1909 23.8931L51.4462 25.5975Z" fill="#008080"/>
</g>
<defs>
<clipPath id="clip0_178_770">
<rect width="58.125" height="60" fill="white"/>
</clipPath>
</defs>
</svg>
