<svg width="63" height="60" viewBox="0 0 63 60" fill="none" xmlns="http://www.w3.org/2000/svg">
<g clip-path="url(#clip0_178_780)">
<path d="M8.22604 11.129H19.8389C20.0956 11.129 20.3418 11.0271 20.5232 10.8456C20.7047 10.6641 20.8067 10.418 20.8067 10.1613C20.8067 9.90464 20.7047 9.65849 20.5232 9.477C20.3418 9.29552 20.0956 9.19356 19.8389 9.19356H8.22604C7.96938 9.19356 7.72323 9.29552 7.54175 9.477C7.36026 9.65849 7.2583 9.90464 7.2583 10.1613C7.2583 10.418 7.36026 10.6641 7.54175 10.8456C7.72323 11.0271 7.96938 11.129 8.22604 11.129Z" fill="#008080"/>
<path d="M8.22604 17.9032H19.8389C20.0956 17.9032 20.3418 17.8013 20.5232 17.6198C20.7047 17.4383 20.8067 17.1921 20.8067 16.9355C20.8067 16.6788 20.7047 16.4327 20.5232 16.2512C20.3418 16.0697 20.0956 15.9677 19.8389 15.9677H8.22604C7.96938 15.9677 7.72323 16.0697 7.54175 16.2512C7.36026 16.4327 7.2583 16.6788 7.2583 16.9355C7.2583 17.1921 7.36026 17.4383 7.54175 17.6198C7.72323 17.8013 7.96938 17.9032 8.22604 17.9032Z" fill="#008080"/>
<path d="M8.22604 29.5161H40.1615C40.4182 29.5161 40.6643 29.4142 40.8458 29.2327C41.0273 29.0512 41.1293 28.8051 41.1293 28.5484C41.1293 28.2917 41.0273 28.0456 40.8458 27.8641C40.6643 27.6826 40.4182 27.5807 40.1615 27.5807H8.22604C7.96938 27.5807 7.72323 27.6826 7.54175 27.8641C7.36026 28.0456 7.2583 28.2917 7.2583 28.5484C7.2583 28.8051 7.36026 29.0512 7.54175 29.2327C7.72323 29.4142 7.96938 29.5161 8.22604 29.5161Z" fill="#008080"/>
<path d="M3.11931 60H45.157C45.5027 59.9932 45.8436 59.918 46.16 59.7787C46.4764 59.6393 46.762 59.4386 47.0004 59.1882C47.5712 58.6089 47.895 57.8307 47.9034 57.0174L47.8868 38.7383L45.9531 40.6471L45.9679 57.0249C45.9581 57.3265 45.8351 57.6133 45.6234 57.8283C45.5004 57.9641 45.3306 58.0485 45.148 58.0645H3.12497C2.69308 58.0645 2.42232 57.591 2.41949 57.1573V2.88645C2.38194 2.56718 2.44946 2.24437 2.61181 1.96691C2.62126 1.95772 2.64253 1.9362 2.73703 1.93573H32.8807C33.1782 1.93474 33.4651 2.04632 33.6838 2.24807L33.6902 2.25465C33.7946 2.3494 33.8593 2.48017 33.8711 2.62065L33.9047 9.05935C33.9214 9.74811 34.2107 10.4021 34.7089 10.8779C35.2072 11.3537 35.8738 11.6125 36.5626 11.5975L44.6906 11.5973C44.8529 11.6098 45.01 11.6603 45.1492 11.7446C45.1567 11.7491 45.164 11.7539 45.1716 11.7582C45.5656 11.9841 45.926 12.3988 45.9277 12.6622L45.9395 25.6516L47.8732 23.7428L47.8632 12.6546C47.8206 12.1369 47.6506 11.6379 47.3681 11.202C47.0857 10.7661 46.6997 10.4069 46.2446 10.1565L34.9602 0.798392C34.3935 0.281968 33.6535 -0.00287019 32.8868 0.000256684H2.73136C2.45398 -0.00411294 2.17856 0.0473468 1.92147 0.151575C1.66438 0.255804 1.43088 0.410672 1.23486 0.606968C0.96418 0.919081 0.758378 1.28198 0.629462 1.67449C0.500546 2.06699 0.451099 2.48125 0.484006 2.89307V57.1639C0.469088 57.5235 0.525594 57.8826 0.650259 58.2203C0.774923 58.558 0.965275 58.8677 1.21031 59.1314C1.45535 59.3951 1.75022 59.6077 2.07789 59.7567C2.40555 59.9058 2.75951 59.9885 3.11931 60ZM35.8397 9.02533L35.8136 4.02035L42.6167 9.66212L36.5844 9.6623C36.4932 9.672 36.4009 9.66298 36.3133 9.6358C36.2257 9.60862 36.1445 9.56385 36.0748 9.50422C36.0051 9.44459 35.9483 9.37137 35.9079 9.28902C35.8674 9.20668 35.8442 9.11695 35.8397 9.02533Z" fill="#008080"/>
<path d="M8.22604 34.3548H37.1225L39.0833 32.4194H8.22604C7.96938 32.4194 7.72323 32.5213 7.54175 32.7028C7.36026 32.8843 7.2583 33.1304 7.2583 33.3871C7.2583 33.6438 7.36026 33.8899 7.54175 34.0714C7.72323 34.2529 7.96938 34.3548 8.22604 34.3548Z" fill="#008080"/>
<path d="M8.22604 39.1936H32.2205L34.1813 37.2581H8.22604C7.96938 37.2581 7.72323 37.36 7.54175 37.5415C7.36026 37.723 7.2583 37.9692 7.2583 38.2258C7.2583 38.4825 7.36026 38.7286 7.54175 38.9101C7.72323 39.0916 7.96938 39.1936 8.22604 39.1936Z" fill="#008080"/>
<path d="M43.4731 30.8052L31.6849 42.4412C31.6731 42.4529 31.6646 42.467 31.6535 42.4792C31.6324 42.5022 31.6127 42.526 31.5937 42.5513C31.5731 42.5788 31.554 42.6074 31.5365 42.637C31.5283 42.6508 31.5177 42.6622 31.5101 42.6765L27.6935 49.8689C27.5968 50.0511 27.5608 50.2594 27.5909 50.4635C27.6209 50.6675 27.7154 50.8566 27.8604 51.0032C28.0055 51.1498 28.1936 51.2463 28.3973 51.2784C28.6011 51.3106 28.8097 51.2769 28.9929 51.1821L36.2793 47.4146C36.2928 47.4077 36.3036 47.3978 36.3166 47.3903C36.3742 47.3569 36.4283 47.3178 36.478 47.2736C36.4898 47.263 36.5032 47.2553 36.5146 47.244L59.7781 24.2807L60.4842 24.9739L52.1568 33.1938C51.9741 33.3742 51.8705 33.6197 51.8688 33.8764C51.8671 34.1331 51.9675 34.38 52.1478 34.5627C52.3281 34.7455 52.5737 34.8491 52.8304 34.8507C53.0871 34.8524 53.334 34.7521 53.5167 34.5717L61.8442 26.3513C62.0263 26.1719 62.1709 25.9581 62.2696 25.7223C62.3684 25.4865 62.4192 25.2334 62.4192 24.9777C62.4192 24.722 62.3684 24.4689 62.2696 24.2331C62.1709 23.9973 62.0263 23.7835 61.8442 23.6041L61.1535 22.9222C61.3805 22.6981 61.5607 22.4311 61.6835 22.1367C61.8064 21.8423 61.8695 21.5264 61.8692 21.2074C61.8689 20.8884 61.8051 20.5726 61.6816 20.2785C61.5582 19.9843 61.3775 19.7177 61.15 19.494L59.7617 18.1237C59.302 17.6737 58.6843 17.4217 58.0409 17.4217C57.3976 17.4218 56.7799 17.6739 56.3203 18.1239L43.4731 30.8052ZM44.1619 32.8451L46.2541 34.9102L35.8347 45.1952L33.7423 43.1302L44.1619 32.8451ZM54.5713 22.5699L56.6636 24.6352L47.632 33.5501L45.5398 31.4849L54.5713 22.5699ZM32.6102 44.7325L34.2061 46.3077L30.8547 48.0407L32.6102 44.7325ZM57.6797 19.5016C57.7763 19.4071 57.9059 19.3542 58.041 19.3542C58.176 19.3541 58.3057 19.407 58.4022 19.5013L59.7901 20.8714C59.8355 20.9154 59.8716 20.968 59.8963 21.0262C59.921 21.0844 59.9337 21.147 59.9337 21.2102C59.9337 21.2734 59.921 21.336 59.8963 21.3942C59.8716 21.4524 59.8355 21.5051 59.7901 21.549L58.0413 23.2753L55.949 21.21L57.6797 19.5016Z" fill="#008080"/>
<path d="M18.4483 54.2966C18.6873 54.2111 18.9065 54.0782 19.0928 53.9058C19.1178 53.8845 19.1424 53.8628 19.1698 53.8425C19.2221 53.811 19.2821 53.7948 19.3431 53.7955C19.4041 53.7963 19.4637 53.814 19.5152 53.8467C19.6515 53.9551 19.8144 54.0247 19.9868 54.0484C20.1593 54.072 20.3349 54.0487 20.4953 53.9809C20.5491 53.958 20.6008 53.9303 20.6498 53.8982C20.731 53.9478 20.8151 53.9925 20.9016 54.0319C21.1895 54.1595 21.5029 54.2186 21.8174 54.2046C22.1319 54.1907 22.4389 54.1041 22.7143 53.9516C22.9193 53.8382 23.0993 53.6846 23.2435 53.4999C23.9469 53.3932 24.6359 53.2068 25.2971 52.9442C25.4617 53.0708 25.6626 53.1412 25.8702 53.1448C26.0778 53.1485 26.281 53.0853 26.4499 52.9646C26.6189 52.8439 26.7445 52.672 26.8082 52.4744C26.872 52.2768 26.8705 52.064 26.804 51.8673L26.6386 51.3768C26.5939 51.2443 26.5209 51.1231 26.4248 51.0216C26.3287 50.92 26.2117 50.8405 26.0819 50.7885C25.9521 50.7365 25.8126 50.7132 25.673 50.7203C25.5333 50.7274 25.3969 50.7647 25.273 50.8296C24.4167 51.2761 23.4813 51.5508 22.5196 51.6381C22.337 51.6543 22.1627 51.722 22.0171 51.8333C21.8714 51.9447 21.7604 52.0951 21.6969 52.2671C21.4264 52.053 21.2113 51.777 21.0699 51.4623C20.9681 51.2839 20.8122 51.1425 20.6247 51.0585C20.4372 50.9746 20.2279 50.9525 20.027 50.9955C19.8261 51.0384 19.6441 51.1442 19.5074 51.2974C19.3706 51.4507 19.2861 51.6435 19.2662 51.8479L19.2648 51.8588C18.8212 51.8713 18.3916 52.017 18.032 52.277C18.0112 52.2396 17.9894 52.1976 17.9677 52.1503L17.1039 50.272C17.0126 50.0241 16.8716 49.7974 16.6896 49.6059C16.5076 49.4144 16.2884 49.2621 16.0454 49.1583C15.6594 49.0386 15.243 49.0636 14.8741 49.2288C14.5053 49.394 14.2092 49.6879 14.0414 50.0556C13.8432 50.5156 13.7724 51.0204 13.8364 51.5171C13.925 52.8204 14.1274 54.1135 14.4412 55.3815C14.4718 55.5049 14.5264 55.621 14.6019 55.7233C14.6773 55.8255 14.7722 55.9119 14.8811 55.9775C14.9899 56.0431 15.1106 56.0866 15.2363 56.1056C15.362 56.1245 15.4902 56.1185 15.6135 56.0879C15.7369 56.0573 15.853 56.0027 15.9553 55.9273C16.0576 55.8518 16.144 55.7569 16.2096 55.6481C16.2752 55.5392 16.3187 55.4185 16.3376 55.2928C16.3566 55.1671 16.3506 55.0389 16.32 54.9156C16.0938 54.0025 15.9309 53.0749 15.8323 52.1395L16.2094 52.9588C16.8209 54.2904 17.7678 54.5243 18.4483 54.2966Z" fill="#008080"/>
<path d="M29.6271 42.0968H8.22604C7.96938 42.0968 7.72323 42.1987 7.54175 42.3802C7.36026 42.5617 7.2583 42.8079 7.2583 43.0645C7.2583 43.3212 7.36026 43.5673 7.54175 43.7488C7.72323 43.9303 7.96938 44.0323 8.22604 44.0323H28.6L29.6271 42.0968Z" fill="#008080"/>
</g>
<defs>
<clipPath id="clip0_178_780">
<rect width="62.4193" height="60" fill="white"/>
</clipPath>
</defs>
</svg>
