<svg width="62" height="60" viewBox="0 0 62 60" fill="none" xmlns="http://www.w3.org/2000/svg">
<g clip-path="url(#clip0_178_794)">
<path d="M14.2397 0.446291C14.504 0.181997 14.7907 0.0598207 15.1647 0.0498505H50.8845C51.5901 0.0498505 52.1611 0.620827 52.1611 1.32645V4.83957L59.7932 6.88411C60.429 7.05365 60.8379 7.69194 60.7157 8.35021L52.1613 53.5749V58.6738C52.1613 59.3795 51.5903 59.9504 50.8847 59.9504H6.50319C5.79755 59.9504 5.2266 59.3794 5.2266 58.6738V55.5721H1.81566C1.11002 55.5721 0.539062 55.0011 0.539062 54.2955V5.6827C0.539062 4.97706 1.11004 4.40611 1.81566 4.40611H10.2782L14.2401 0.444191L14.2397 0.446291ZM19.4209 30.3965C19.0045 30.9625 18.2066 31.0847 17.6406 30.6708C17.0746 30.2544 16.9524 29.4565 17.3663 28.8905C18.6679 27.1202 20.3783 25.6641 22.353 24.6618C24.2605 23.6969 26.4147 23.1508 28.6911 23.1508C30.9676 23.1508 33.1218 23.6968 35.0268 24.6618C37.004 25.6641 38.7144 27.1178 40.0159 28.8905C40.4323 29.4565 40.3102 30.2544 39.7417 30.6708C39.1757 31.0872 38.3778 30.965 37.9614 30.3965C36.8967 28.9479 35.4955 27.7536 33.8798 26.9357C32.3264 26.1478 30.5612 25.704 28.6911 25.704C26.8211 25.704 25.0558 26.1478 23.5025 26.9357C21.8843 27.7535 20.4855 28.9453 19.4209 30.3965ZM28.6909 7.0814C30.8476 7.0814 32.7999 7.95657 34.2136 9.36778C35.6248 10.779 36.5 12.7338 36.5 14.8905C36.5 17.0473 35.6248 18.9996 34.2136 20.4133C32.8024 21.8245 30.8476 22.6997 28.6909 22.6997C26.5341 22.6997 24.5818 21.8245 23.1681 20.4133C21.7569 19.0021 20.8817 17.0473 20.8817 14.8905C20.8817 12.7338 21.7569 10.7815 23.1681 9.36778C24.5793 7.95657 26.5341 7.0814 28.6909 7.0814ZM32.4085 11.173C31.4585 10.223 30.142 9.63459 28.6909 9.63459C27.2398 9.63459 25.9258 10.223 24.9733 11.173C24.0233 12.123 23.4349 13.4395 23.4349 14.8906C23.4349 16.3417 24.0233 17.6557 24.9733 18.6082C25.9233 19.5581 27.2398 20.1466 28.6909 20.1466C30.142 20.1466 31.456 19.5582 32.4085 18.6082C33.3584 17.6582 33.9469 16.3417 33.9469 14.8906C33.9469 13.4395 33.3584 12.1255 32.4085 11.173ZM26.6987 49.9075C25.993 49.9075 25.4221 49.3365 25.4221 48.6309C25.4221 47.9253 25.9931 47.3543 26.6987 47.3543H41.4644C42.1701 47.3543 42.741 47.9253 42.741 48.6309C42.741 49.3365 42.17 49.9075 41.4644 49.9075H26.6987ZM26.6987 40.8915C25.993 40.8915 25.4221 40.3206 25.4221 39.6149C25.4221 38.9093 25.9931 38.3383 26.6987 38.3383H41.4644C42.1701 38.3383 42.741 38.9093 42.741 39.6149C42.741 40.3206 42.17 40.8915 41.4644 40.8915H26.6987ZM15.9197 44.9781H20.6721C21.3777 44.9781 21.9487 45.5491 21.9487 46.2547V51.007C21.9487 51.7127 21.3777 52.2836 20.6721 52.2836H15.9197C15.2141 52.2836 14.6431 51.7126 14.6431 51.007V46.2547C14.6431 45.5491 15.2141 44.9781 15.9197 44.9781ZM19.3955 47.5313H17.1963V49.7304H19.3955V47.5313ZM15.9197 35.9621H20.6721C21.3777 35.9621 21.9487 36.5331 21.9487 37.2387V41.9911C21.9487 42.6967 21.3777 43.2677 20.6721 43.2677H15.9197C15.2141 43.2677 14.6431 42.6967 14.6431 41.9911V37.2387C14.6431 36.5331 15.2141 35.9621 15.9197 35.9621ZM19.3955 38.5153H17.1963V40.7145H19.3955V38.5153ZM5.22334 53.0194V9.98916C5.23082 9.6376 5.34552 9.33842 5.61978 9.06414L7.72418 6.95974H3.09155V53.0193H5.22589L5.22334 53.0194ZM52.158 7.47555V39.8717L57.99 9.03874L52.158 7.47555ZM7.77653 11.263V57.3947H49.6048V2.60061H16.4382V9.98827C16.4382 10.6939 15.8673 11.2649 15.1616 11.2649H7.77653V11.263ZM13.8852 4.4038C12.4491 5.83997 11.0179 7.27116 9.57921 8.70982H13.8852V4.4038Z" fill="#008080"/>
</g>
<defs>
<clipPath id="clip0_178_794">
<rect width="61.2766" height="60" fill="white"/>
</clipPath>
</defs>
</svg>
